<?xml version="1.0" encoding="utf-8"?><!DOCTYPE svg PUBLIC "-//W3C//DTD SVG 1.1//EN" "http://www.w3.org/Graphics/SVG/1.1/DTD/svg11.dtd"><svg version="1.1" xmlns="http://www.w3.org/2000/svg" xmlns:xlink="http://www.w3.org/1999/xlink" width="32" height="32" viewBox="0 0 32 32" data-tags="mailchimp"><g fill="#000" transform="scale(0.03125 0.03125)"><path fill="#000" d="M767.147 483.883c7.040-0.896 14.165-0.896 21.205 0 3.797-8.747 4.437-23.808 1.024-40.192-5.12-24.363-11.947-39.125-26.155-36.821s-14.763 19.968-9.643 44.331c2.859 13.696 7.936 25.429 13.568 32.683zM645.12 503.168c10.197 4.48 16.427 7.424 18.859 4.864 1.579-1.621 1.109-4.693-1.28-8.661-5.035-8.235-15.36-16.555-26.325-21.205-8.105-3.458-17.534-5.468-27.433-5.468-15.906 0-30.599 5.19-42.479 13.968l0.195-0.138c-6.827 4.992-13.227 11.947-12.373 16.128 0.341 1.365 1.323 2.389 3.712 2.731 5.632 0.64 25.216-9.259 47.787-10.667 15.957-0.981 29.184 4.011 39.339 8.448zM624.64 514.859c-13.227 2.133-20.523 6.485-25.216 10.539-4.011 3.499-6.485 7.381-6.485 10.112l1.024 2.432 2.176 0.853c2.987 0 9.728-2.731 9.728-2.731 8.838-3.439 19.068-5.431 29.763-5.431 4.555 0 9.025 0.361 13.384 1.057l-0.48-0.063c6.613 0.768 9.813 1.195 11.221-1.109 0.427-0.64 0.981-2.091-0.341-4.267-3.115-5.035-16.512-13.525-34.773-11.392zM725.973 557.781c8.96 4.437 18.859 2.688 22.101-3.84 3.243-6.613-1.451-15.531-10.453-19.925-8.96-4.437-18.859-2.688-22.101 3.84-3.243 6.613 1.451 15.531 10.453 19.925zM783.787 507.179c-7.296-0.128-13.397 7.893-13.525 17.963-0.171 10.027 5.589 18.261 12.885 18.389s13.397-7.893 13.568-17.92c0.128-10.027-5.632-18.261-12.928-18.432zM292.949 688.213c-1.792-2.261-4.779-1.579-7.68-0.896-2.040 0.569-4.388 0.91-6.81 0.939l-0.017 0c-0.097 0.002-0.212 0.004-0.327 0.004-4.999 0-9.419-2.478-12.1-6.272l-0.031-0.046c-3.328-5.12-3.115-12.757 0.512-21.504l1.707-3.925c5.888-13.141 15.701-35.2 4.693-56.192-8.277-15.787-21.803-25.685-38.059-27.733-1.864-0.252-4.018-0.396-6.206-0.396-14.093 0-26.793 5.968-35.709 15.514l-0.026 0.028c-16.171 17.835-18.688 42.155-15.531 50.773 1.152 3.115 2.944 4.011 4.224 4.181 2.773 0.384 6.827-1.621 9.387-8.533l0.725-2.219c1.109-3.627 3.243-10.368 6.699-15.787 5.319-8.070 14.341-13.323 24.59-13.323 5.979 0 11.541 1.788 16.18 4.858l-0.109-0.068c11.349 7.467 15.701 21.333 10.88 34.603-2.517 6.869-6.571 19.968-5.675 30.72 1.835 21.845 15.232 30.592 27.221 31.573 11.691 0.427 19.883-6.187 21.931-11.008 1.28-2.816 0.213-4.565-0.427-5.333zM968.149 648.277c-0.427-1.579-3.328-12.203-7.339-25.003l-8.107-21.76c16-24.021 16.256-45.483 14.165-57.6-2.304-15.061-8.533-27.904-21.163-41.131-12.587-13.312-38.4-26.88-74.667-37.035l-18.987-5.291c-0.085-0.768-0.981-44.928-1.835-63.872-0.555-13.653-1.749-35.072-8.363-56.107-7.893-28.544-21.632-53.461-38.827-69.419 47.36-49.152 76.928-103.339 76.843-149.803-0.128-89.387-109.696-116.48-244.736-60.416l-28.587 12.16c-13.359-13.158-30.451-29.94-47.565-46.7l-4.915-4.798c-154.027-134.571-635.349 401.408-481.493 531.627l33.664 28.501c-6.608 17.198-10.435 37.095-10.435 57.885 0 6.559 0.381 13.030 1.122 19.39l-0.073-0.774c3.627 35.84 22.059 70.144 51.968 96.683 28.373 25.173 65.707 41.173 101.931 41.131 59.861 138.24 196.693 223.061 357.12 227.84 172.117 5.12 316.587-75.776 377.173-221.099 3.968-10.24 20.736-56.192 20.736-96.725 0-40.789-22.997-57.685-37.632-57.685zM264.021 757.077c-4.182 0.749-8.997 1.177-13.911 1.177-0.72 0-1.437-0.009-2.152-0.027l0.106 0.002c-51.968-1.408-108.117-48.256-113.707-103.893-6.187-61.44 25.173-108.715 80.64-119.893 5.569-1.163 11.969-1.829 18.524-1.829 1.693 0 3.376 0.044 5.048 0.132l-0.234-0.010c31.104 1.707 76.928 25.6 87.381 93.483 9.259 60.075-5.461 121.301-61.696 130.859zM205.995 497.664c-34.56 6.699-65.024 26.325-83.627 53.419-11.136-9.301-31.872-27.307-35.541-34.304-29.739-56.533 32.427-166.485 75.861-228.565 107.392-153.429 275.413-269.568 353.28-248.491 12.629 3.584 54.528 52.224 54.528 52.224s-77.781 43.221-149.931 103.509c-97.195 74.965-170.624 183.936-214.571 302.208zM751.573 734.123c1.071-0.495 1.801-1.561 1.801-2.797 0-0.082-0.003-0.163-0.009-0.243l0.001 0.011c-0.148-1.453-1.365-2.577-2.845-2.577-0.11 0-0.219 0.006-0.326 0.018l0.013-0.001c0 0-81.408 12.075-158.336-16.171 8.363-27.264 30.635-17.408 64.341-14.677 8.311 0.525 18.023 0.824 27.805 0.824 45.398 0 89.293-6.44 130.819-18.456l-3.317 0.822c34.816-10.027 80.555-29.781 116.139-57.856 11.947 26.368 16.213 55.381 16.213 55.381s9.259-1.664 17.024 3.115c7.296 4.523 12.672 13.909 9.003 38.187-7.467 45.355-26.709 82.176-59.051 116.053-19.866 21.48-43.356 39.26-69.558 52.44l-1.397 0.637c-12.978 7.028-28.281 13.669-44.181 19.011l-2.112 0.616c-121.941 39.893-246.784-3.968-287.019-98.133-2.899-6.156-5.661-13.553-7.843-21.194l-0.263-1.078c-17.109-62.080-2.56-136.533 42.965-183.424 2.773-2.987 5.632-6.528 5.632-10.923 0-3.712-2.347-7.595-4.352-10.368-15.915-23.125-71.083-62.549-59.989-138.837 7.936-54.827 55.808-93.397 100.395-91.093l11.307 0.64c19.328 1.152 36.181 3.627 52.139 4.309 26.624 1.152 50.56-2.731 78.933-26.411 9.557-7.979 17.237-14.933 30.208-17.109 1.365-0.213 4.736-1.451 11.52-1.109 7.275 0.286 13.963 2.571 19.596 6.317l-0.14-0.088c22.741 15.147 25.941 51.84 27.136 78.72 0.683 15.36 2.517 52.395 3.157 63.061 1.451 24.32 7.808 27.733 20.736 32 7.253 2.432 14.037 4.224 23.979 6.997 30.080 8.491 47.915 17.067 59.179 28.117 6.741 6.869 9.813 14.208 10.795 21.205 3.584 25.941-20.053 57.984-82.688 87.083-68.48 31.829-151.467 39.893-208.853 33.493l-20.096-2.261c-45.909-6.187-72.064 53.205-44.544 93.909 17.749 26.24 66.133 43.307 114.475 43.307 110.933 0 196.181-47.403 227.883-88.405l2.56-3.627c1.536-2.347 0.256-3.627-1.707-2.304-25.899 17.749-140.971 88.277-264.107 67.029 0 0-14.933-2.432-28.587-7.765-10.837-4.224-33.536-14.677-36.267-38.016 99.328 30.763 161.835 1.664 161.835 1.621zM594.219 715.52l0.043 0.043zM404.181 287.573c38.187-44.203 85.163-82.603 127.232-104.149 1.451-0.725 2.987 0.853 2.219 2.261-3.371 6.059-9.813 19.072-11.819 28.885-0.025 0.11-0.039 0.235-0.039 0.364 0 0.943 0.764 1.707 1.707 1.707 0.348 0 0.672-0.104 0.942-0.283l-0.006 0.004c26.197-17.877 71.723-37.035 111.701-39.467 1.707-0.128 2.56 2.091 1.152 3.157-6.571 5.077-12.501 11.008-17.536 17.621-0.213 0.282-0.342 0.638-0.342 1.025 0 0.928 0.74 1.683 1.662 1.706l0.002 0c28.032 0.213 67.584 10.027 93.355 24.533 1.707 0.981 0.512 4.352-1.451 3.925-38.997-8.96-102.827-15.787-169.131 0.427-59.179 14.464-104.363 36.779-137.301 60.8-1.707 1.237-3.669-0.981-2.347-2.517z" /></g></svg>